<svg width="1024" height="1024" viewBox="0 0 1024 1024" xmlns="http://www.w3.org/2000/svg">
  <defs>
    <linearGradient id="bg" x1="0" y1="0" x2="1" y2="1">
      <stop offset="0" stop-color="#34d399"/>
      <stop offset="1" stop-color="#065f46"/>
    </linearGradient>
    <linearGradient id="sheen" x1="0" y1="0" x2="0" y2="1">
      <stop offset="0" stop-color="#ffffff" stop-opacity="0.16"/>
      <stop offset="1" stop-color="#ffffff" stop-opacity="0"/>
    </linearGradient>
  </defs>

  <!-- fundo -->
  <rect x="64" y="64" width="896" height="896" rx="200" fill="url(#bg)"/>
  <rect x="64" y="64" width="896" height="512" rx="200" fill="url(#sheen)"/>

  <!-- prancheta -->
  <rect x="272" y="240" width="480" height="580" rx="48" fill="#ffffff" opacity="0.95"/>
  <rect x="392" y="196" width="240" height="96" rx="28" fill="#059669"/>
  <circle cx="512" cy="244" r="20" fill="#d1fae5"/>

  <!-- itens do histórico -->
  <g>
    <rect x="330" y="356" width="364" height="86" rx="18" fill="#d1fae5"/>
    <rect x="356" y="384" width="220" height="20" rx="10" fill="#059669" opacity="0.7"/>
    <rect x="330" y="466" width="364" height="86" rx="18" fill="#ecfdf5"/>
    <rect x="356" y="494" width="270" height="20" rx="10" fill="#059669" opacity="0.45"/>
    <rect x="330" y="576" width="364" height="86" rx="18" fill="#ecfdf5"/>
    <rect x="356" y="604" width="180" height="20" rx="10" fill="#059669" opacity="0.45"/>
  </g>

  <!-- pin no primeiro item -->
  <circle cx="662" cy="380" r="22" fill="#059669"/>
  <rect x="656" y="392" width="12" height="30" rx="6" fill="#059669"/>

  <!-- easter egg da marca -->
  <text x="512" y="920" font-family="Segoe Script, cursive" font-size="80"
        fill="#ffffff" opacity="0.55" text-anchor="middle">Taylor</text>
</svg>
